<svg viewBox="0 0 90 90" xml:space="preserve" xmlns="http://www.w3.org/2000/svg" enable-background="new 0 0 90 90"><path d="M49.6 6.8C52.9 3 58.3.2 62.8 0c.6 5.3-1.5 10.6-4.7 14.4-3.1 3.8-8.3 6.8-13.3 6.4-.6-5.2 1.9-10.6 4.8-14zm25.7 72c-3.7 5.5-7.6 10.9-13.7 11.1-6 .1-7.9-3.6-14.8-3.6s-9 3.5-14.7 3.7c-5.9.2-10.4-5.9-14.2-11.4C10.2 67.4 4.3 47 12.3 33.3c3.9-6.8 10.9-11.2 18.5-11.3 5.8-.1 11.3 3.9 14.8 3.9s10.2-4.8 17.2-4.1c2.9.1 11.1 1.2 16.4 8.9-.4.3-9.8 5.7-9.7 17.1.1 13.6 11.9 18.2 12 18.2-.1.3-1.9 6.5-6.2 12.8z" fill="#ffffff" class="fill-000000"></path></svg>